999
dxfrw 0.5.10
0
SECTION
2
HEADER
9
$ACADVER
1
AC1021
9
$HANDSEED
5
20000
9
$DWGCODEPAGE
3
ANSI_1252
9
$INSBASE
10
0
20
0
30
0
9
$EXTMIN
10
0
20
0
30
0
9
$EXTMAX
10
288
20
485
30
0
9
$LIMMIN
10
0
20
0
9
$LIMMAX
10
420
20
297
9
$ORTHOMODE
70
0
9
$LTSCALE
40
1
9
$TEXTSTYLE
7
STANDARD
9
$CLAYER
8
blocks
9
$DIMASZ
40
1
9
$DIMLFAC
40
1
9
$DIMSCALE
40
1
9
$DIMEXO
40
5
9
$DIMEXE
40
5
9
$DIMTXT
40
5
9
$DIMTSZ
40
1
9
$DIMAUNIT
70
0
9
$DIMADEC
70
2
9
$DIMLUNIT
70
4
9
$DIMSTYLE
2
STANDARD
9
$DIMGAP
40
2
9
$DIMTIH
70
0
9
$LUNITS
70
4
9
$LUPREC
70
0
9
$AUNITS
70
0
9
$AUPREC
70
2
9
$SPLINESEGS
70
8
9
$GRIDMODE
70
1
9
$SNAPSTYLE
70
0
9
$GRIDUNIT
10
1
20
1
9
$PINSBASE
10
2.02083333333
20
0.46484375
30
0
9
$PLIMMIN
10
0
20
0
9
$PLIMMAX
10
8.5
20
11
9
$INSUNITS
70
1
9
$PSVPSCALE
40
0.0208333333333
0
ENDSEC
0
SECTION
2
CLASSES
0
ENDSEC
0
SECTION
2
TABLES
0
TABLE
2
VPORT
5
8
330
0
100
AcDbSymbolTable
70
1
0
VPORT
5
31
330
2
100
AcDbSymbolTableRecord
100
AcDbViewportTableRecord
2
*ACTIVE
70
0
10
0
20
0
11
1
21
1
12
391.85341283
22
241.730016448
13
0
23
0
14
10
24
10
15
1
25
1
16
0
26
0
36
1
17
0
27
0
37
0
40
529.437500001
41
2.06973684211
42
50
43
0
44
0
50
0
51
0
71
0
72
100
73
1
74
3
75
0
76
1
77
0
78
0
281
0
65
1
110
0
120
0
130
0
111
1
121
0
131
0
112
0
122
1
132
0
79
0
146
0
348
10020
60
3
61
5
292
1
282
1
141
0
142
0
63
250
421
3358443
0
ENDTAB
0
TABLE
2
LTYPE
5
5
330
0
100
AcDbSymbolTable
70
4
0
LTYPE
5
14
330
5
100
AcDbSymbolTableRecord
100
AcDbLinetypeTableRecord
2
ByBlock
70
0
3

72
65
73
0
40
0
0
LTYPE
5
15
330
5
100
AcDbSymbolTableRecord
100
AcDbLinetypeTableRecord
2
ByLayer
70
0
3

72
65
73
0
40
0
0
LTYPE
5
16
330
5
100
AcDbSymbolTableRecord
100
AcDbLinetypeTableRecord
2
Continuous
70
0
3
Solid line
72
65
73
0
40
0
0
LTYPE
5
32
330
5
100
AcDbSymbolTableRecord
100
AcDbLinetypeTableRecord
2
DOT
70
0
3
Dot . . . . . . . . . . . . . . . . . . . . . .
72
65
73
2
40
6.35
49
0
74
0
49
-6.35
74
0
0
LTYPE
5
33
330
5
100
AcDbSymbolTableRecord
100
AcDbLinetypeTableRecord
2
DOT2
70
0
3
Dot (.5x) .....................................
72
65
73
2
40
3.175
49
0
74
0
49
-3.175
74
0
0
LTYPE
5
34
330
5
100
AcDbSymbolTableRecord
100
AcDbLinetypeTableRecord
2
DOTX2
70
0
3
Dot (2x) .  .  .  .  .  .  .  .  .  .  .  .  .
72
65
73
2
40
12.7
49
0
74
0
49
-12.7
74
0
0
LTYPE
5
35
330
5
100
AcDbSymbolTableRecord
100
AcDbLinetypeTableRecord
2
DASHED
70
0
3
Dot . . . . . . . . . . . . . . . . . . . . . .
72
65
73
2
40
19.05
49
12.7
74
0
49
-6.35
74
0
0
LTYPE
5
36
330
5
100
AcDbSymbolTableRecord
100
AcDbLinetypeTableRecord
2
DASHED2
70
0
3
Dashed (.5x) _ _ _ _ _ _ _ _ _ _ _ _ _ _ _ _ _
72
65
73
2
40
9.525
49
6.35
74
0
49
-3.175
74
0
0
LTYPE
5
37
330
5
100
AcDbSymbolTableRecord
100
AcDbLinetypeTableRecord
2
DASHEDX2
70
0
3
Dashed (2x) ____  ____  ____  ____  ____  ___
72
65
73
2
40
38.1
49
25.4
74
0
49
-12.7
74
0
0
LTYPE
5
38
330
5
100
AcDbSymbolTableRecord
100
AcDbLinetypeTableRecord
2
DASHDOT
70
0
3
Dash dot __ . __ . __ . __ . __ . __ . __ . __
72
65
73
4
40
25.4
49
12.7
74
0
49
-6.35
74
0
49
0
74
0
49
-6.35
74
0
0
LTYPE
5
39
330
5
100
AcDbSymbolTableRecord
100
AcDbLinetypeTableRecord
2
DASHDOT2
70
0
3
Dash dot (.5x) _._._._._._._._._._._._._._._.
72
65
73
4
40
12.7
49
6.35
74
0
49
-3.175
74
0
49
0
74
0
49
-3.175
74
0
0
LTYPE
5
3A
330
5
100
AcDbSymbolTableRecord
100
AcDbLinetypeTableRecord
2
DASHDOTX2
70
0
3
Dash dot (2x) ____  .  ____  .  ____  .  ___
72
65
73
4
40
50.8
49
25.4
74
0
49
-12.7
74
0
49
0
74
0
49
-12.7
74
0
0
LTYPE
5
3B
330
5
100
AcDbSymbolTableRecord
100
AcDbLinetypeTableRecord
2
DIVIDE
70
0
3
Divide ____ . . ____ . . ____ . . ____ . . ____
72
65
73
6
40
31.75
49
12.7
74
0
49
-6.35
74
0
49
0
74
0
49
-6.35
74
0
49
0
74
0
49
-6.35
74
0
0
LTYPE
5
3C
330
5
100
AcDbSymbolTableRecord
100
AcDbLinetypeTableRecord
2
DIVIDE2
70
0
3
Divide (.5x) __..__..__..__..__..__..__..__.._
72
65
73
6
40
15.875
49
6.35
74
0
49
-3.175
74
0
49
0
74
0
49
-3.175
74
0
49
0
74
0
49
-3.175
74
0
0
LTYPE
5
3D
330
5
100
AcDbSymbolTableRecord
100
AcDbLinetypeTableRecord
2
DIVIDEX2
70
0
3
Divide (2x) ________  .  .  ________  .  .  _
72
65
73
6
40
63.5
49
25.4
74
0
49
-12.7
74
0
49
0
74
0
49
-12.7
74
0
49
0
74
0
49
-12.7
74
0
0
LTYPE
5
3E
330
5
100
AcDbSymbolTableRecord
100
AcDbLinetypeTableRecord
2
BORDER
70
0
3
Border __ __ . __ __ . __ __ . __ __ . __ __ .
72
65
73
6
40
44.45
49
12.7
74
0
49
-6.35
74
0
49
12.7
74
0
49
-6.35
74
0
49
0
74
0
49
-6.35
74
0
0
LTYPE
5
3F
330
5
100
AcDbSymbolTableRecord
100
AcDbLinetypeTableRecord
2
BORDER2
70
0
3
Border (.5x) __.__.__.__.__.__.__.__.__.__.__.
72
65
73
6
40
22.225
49
6.35
74
0
49
-3.175
74
0
49
6.35
74
0
49
-3.175
74
0
49
0
74
0
49
-3.175
74
0
0
LTYPE
5
40
330
5
100
AcDbSymbolTableRecord
100
AcDbLinetypeTableRecord
2
BORDERX2
70
0
3
Border (2x) ____  ____  .  ____  ____  .  ___
72
65
73
6
40
88.9
49
25.4
74
0
49
-12.7
74
0
49
25.4
74
0
49
-12.7
74
0
49
0
74
0
49
-12.7
74
0
0
LTYPE
5
41
330
5
100
AcDbSymbolTableRecord
100
AcDbLinetypeTableRecord
2
CENTER
70
0
3
Center ____ _ ____ _ ____ _ ____ _ ____ _ ____
72
65
73
4
40
50.8
49
31.75
74
0
49
-6.35
74
0
49
6.35
74
0
49
-6.35
74
0
0
LTYPE
5
42
330
5
100
AcDbSymbolTableRecord
100
AcDbLinetypeTableRecord
2
CENTER2
70
0
3
Center (.5x) ___ _ ___ _ ___ _ ___ _ ___ _ ___
72
65
73
4
40
28.575
49
19.05
74
0
49
-3.175
74
0
49
3.175
74
0
49
-3.175
74
0
0
LTYPE
5
43
330
5
100
AcDbSymbolTableRecord
100
AcDbLinetypeTableRecord
2
CENTERX2
70
0
3
Center (2x) ________  __  ________  __  _____
72
65
73
4
40
101.6
49
63.5
74
0
49
-12.7
74
0
49
12.7
74
0
49
-12.7
74
0
0
ENDTAB
0
TABLE
2
LAYER
5
2
330
0
100
AcDbSymbolTable
70
1
0
LAYER
5
10
330
2
100
AcDbSymbolTableRecord
100
AcDbLayerTableRecord
2
0
70
0
62
7
6
CONTINUOUS
370
100
390
F
0
LAYER
5
44
330
2
100
AcDbSymbolTableRecord
100
AcDbLayerTableRecord
2
dim
70
1
62
7
6
CONTINUOUS
370
25
390
F
0
LAYER
5
45
330
2
100
AcDbSymbolTableRecord
100
AcDbLayerTableRecord
2
layout_a
70
1
62
7
6
CONTINUOUS
370
50
390
F
0
LAYER
5
46
330
2
100
AcDbSymbolTableRecord
100
AcDbLayerTableRecord
2
layout_b
70
1
62
7
6
CONTINUOUS
370
50
390
F
0
LAYER
5
47
330
2
100
AcDbSymbolTableRecord
100
AcDbLayerTableRecord
2
layout_c
70
4
62
7
6
CONTINUOUS
370
50
390
F
0
LAYER
5
48
330
2
100
AcDbSymbolTableRecord
100
AcDbLayerTableRecord
2
blocks
70
0
62
7
6
CONTINUOUS
370
0
390
F
0
ENDTAB
0
TABLE
2
STYLE
5
3
330
0
100
AcDbSymbolTable
70
3
0
STYLE
5
49
330
2
100
AcDbSymbolTableRecord
100
AcDbTextStyleTableRecord
2
Standard
70
0
40
0
41
1
50
0
71
0
42
1
3
txt
4

0
ENDTAB
0
TABLE
2
VIEW
5
6
330
0
100
AcDbSymbolTable
70
0
0
ENDTAB
0
TABLE
2
UCS
5
7
330
0
100
AcDbSymbolTable
70
0
0
ENDTAB
0
TABLE
2
APPID
5
9
330
0
100
AcDbSymbolTable
70
1
0
APPID
5
12
330
9
100
AcDbSymbolTableRecord
100
AcDbRegAppTableRecord
2
ACAD
70
0
0
ENDTAB
0
TABLE
2
DIMSTYLE
5
A
330
0
100
AcDbSymbolTable
70
1
100
AcDbDimStyleTable
71
1
0
DIMSTYLE
105
4A
330
A
100
AcDbSymbolTableRecord
100
AcDbDimStyleTableRecord
2
Standard
70
0
40
1
41
1
42
5
43
0.38
44
5
45
0
46
0
47
0
48
0
140
5
141
0.09
142
0
143
25.4
144
1
145
0
146
1
147
2
148
0
71
0
72
0
73
0
74
1
75
0
76
0
77
0
78
0
79
0
170
0
171
2
172
0
173
0
174
0
175
0
176
0
177
0
178
0
179
0
271
4
272
4
273
2
274
2
275
0
276
0
277
2
278
46
279
0
280
0
281
0
282
0
283
1
284
0
285
0
286
0
288
0
289
3
340
Standard
341

371
-2
372
-2
0
ENDTAB
0
TABLE
2
BLOCK_RECORD
5
1
330
0
100
AcDbSymbolTable
70
2
0
BLOCK_RECORD
5
1F
330
1
100
AcDbSymbolTableRecord
100
AcDbBlockTableRecord
2
*Model_Space
70
0
280
1
281
0
0
BLOCK_RECORD
5
1E
330
1
100
AcDbSymbolTableRecord
100
AcDbBlockTableRecord
2
*Paper_Space
70
0
280
1
281
0
0
BLOCK_RECORD
5
4B
330
1
100
AcDbSymbolTableRecord
100
AcDbBlockTableRecord
2
*D7
70
0
280
1
281
0
0
BLOCK_RECORD
5
4E
330
1
100
AcDbSymbolTableRecord
100
AcDbBlockTableRecord
2
*D8
70
0
280
1
281
0
0
BLOCK_RECORD
5
51
330
1
100
AcDbSymbolTableRecord
100
AcDbBlockTableRecord
2
*D2
70
0
280
1
281
0
0
BLOCK_RECORD
5
54
330
1
100
AcDbSymbolTableRecord
100
AcDbBlockTableRecord
2
*D11
70
0
280
1
281
0
0
BLOCK_RECORD
5
57
330
1
100
AcDbSymbolTableRecord
100
AcDbBlockTableRecord
2
*D3
70
0
280
1
281
0
0
BLOCK_RECORD
5
5A
330
1
100
AcDbSymbolTableRecord
100
AcDbBlockTableRecord
2
*D10
70
0
280
1
281
0
0
BLOCK_RECORD
5
5D
330
1
100
AcDbSymbolTableRecord
100
AcDbBlockTableRecord
2
*D1
70
0
280
1
281
0
0
BLOCK_RECORD
5
60
330
1
100
AcDbSymbolTableRecord
100
AcDbBlockTableRecord
2
*D4
70
0
280
1
281
0
0
BLOCK_RECORD
5
63
330
1
100
AcDbSymbolTableRecord
100
AcDbBlockTableRecord
2
*D6
70
0
280
1
281
0
0
BLOCK_RECORD
5
66
330
1
100
AcDbSymbolTableRecord
100
AcDbBlockTableRecord
2
*D12
70
0
280
1
281
0
0
BLOCK_RECORD
5
69
330
1
100
AcDbSymbolTableRecord
100
AcDbBlockTableRecord
2
*D9
70
0
280
1
281
0
0
BLOCK_RECORD
5
6C
330
1
100
AcDbSymbolTableRecord
100
AcDbBlockTableRecord
2
*D5
70
0
280
1
281
0
0
BLOCK_RECORD
5
6F
330
1
100
AcDbSymbolTableRecord
100
AcDbBlockTableRecord
2
Table_Comp_Large
70
0
280
1
281
0
0
BLOCK_RECORD
5
72
330
1
100
AcDbSymbolTableRecord
100
AcDbBlockTableRecord
2
Table_Comp_Small
70
0
280
1
281
0
0
BLOCK_RECORD
5
75
330
1
100
AcDbSymbolTableRecord
100
AcDbBlockTableRecord
2
Table_Comp_Large_DualChair
70
0
280
1
281
0
0
BLOCK_RECORD
5
78
330
1
100
AcDbSymbolTableRecord
100
AcDbBlockTableRecord
2
Table_Circle_QuadChair
70
0
280
1
281
0
0
ENDTAB
0
ENDSEC
0
SECTION
2
BLOCKS
0
BLOCK
5
20
330
1F
100
AcDbEntity
8
0
100
AcDbBlockBegin
2
*Model_Space
70
0
10
0
20
0
30
0
3
*Model_Space
1

0
ENDBLK
5
21
330
1F
100
AcDbEntity
8
0
100
AcDbBlockEnd
0
BLOCK
5
1C
330
1B
100
AcDbEntity
8
0
100
AcDbBlockBegin
2
*Paper_Space
70
0
10
0
20
0
30
0
3
*Paper_Space
1

0
ENDBLK
5
1D
330
1F
100
AcDbEntity
8
0
100
AcDbBlockEnd
0
BLOCK
5
4C
330
4B
100
AcDbEntity
8
0
100
AcDbBlockBegin
2
*D7
70
1
10
0
20
0
3
*D7
1

0
LINE
5
7B
100
AcDbEntity
8
dim
6
CONTINUOUS
62
7
370
0
100
AcDbLine
10
216
20
492
11
228
21
492
0
LINE
5
7C
100
AcDbEntity
8
dim
6
CONTINUOUS
62
7
370
0
100
AcDbLine
10
216.707106781
20
492.707106781
11
215.292893219
21
491.292893219
0
LINE
5
7D
100
AcDbEntity
8
dim
6
CONTINUOUS
62
7
370
0
100
AcDbLine
10
228.707106781
20
492.707106781
11
227.292893219
21
491.292893219
0
MTEXT
5
7E
100
AcDbEntity
8
dim
6
CONTINUOUS
62
7
370
0
100
AcDbMText
10
237.361111111
20
496.5
30
0
40
5
41
14.7222222222
71
5
72
1
1
1'-0"
7
standard
210
0
220
0
230
1
50
0
73
2
44
1
0
LINE
5
7F
100
AcDbEntity
8
dim
6
CONTINUOUS
62
7
370
0
100
AcDbLine
10
216
20
466
11
216
21
497
0
LINE
5
80
100
AcDbEntity
8
dim
6
CONTINUOUS
62
7
370
0
100
AcDbLine
10
228
20
466
11
228
21
497
0
ENDBLK
5
4D
330
4B
100
AcDbEntity
8
0
100
AcDbBlockEnd
0
BLOCK
5
4F
330
4E
100
AcDbEntity
8
0
100
AcDbBlockBegin
2
*D8
70
1
10
0
20
0
3
*D8
1

0
LINE
5
81
100
AcDbEntity
8
dim
6
CONTINUOUS
62
7
370
0
100
AcDbLine
10
180
20
492
11
102
21
492
0
LINE
5
82
100
AcDbEntity
8
dim
6
CONTINUOUS
62
7
370
0
100
AcDbLine
10
179.292893219
20
491.292893219
11
180.707106781
21
492.707106781
0
LINE
5
83
100
AcDbEntity
8
dim
6
CONTINUOUS
62
7
370
0
100
AcDbLine
10
101.292893219
20
491.292893219
11
102.707106781
21
492.707106781
0
MTEXT
5
84
100
AcDbEntity
8
dim
6
CONTINUOUS
62
7
370
0
100
AcDbMText
10
141
20
496.5
30
0
40
5
41
15.8333333333
71
5
72
1
1
6'-6"
7
standard
210
0
220
0
230
1
50
360
73
2
44
1
0
LINE
5
85
100
AcDbEntity
8
dim
6
CONTINUOUS
62
7
370
0
100
AcDbLine
10
180
20
466
11
180
21
497
0
LINE
5
86
100
AcDbEntity
8
dim
6
CONTINUOUS
62
7
370
0
100
AcDbLine
10
102
20
490
11
102
21
497
0
ENDBLK
5
50
330
4E
100
AcDbEntity
8
0
100
AcDbBlockEnd
0
BLOCK
5
52
330
51
100
AcDbEntity
8
0
100
AcDbBlockBegin
2
*D2
70
1
10
0
20
0
3
*D2
1

0
LINE
5
87
100
AcDbEntity
8
dim
6
CONTINUOUS
62
7
370
0
100
AcDbLine
10
-12
20
136
11
-12
21
148
0
LINE
5
88
100
AcDbEntity
8
dim
6
CONTINUOUS
62
7
370
0
100
AcDbLine
10
-12.7071067812
20
136.707106781
11
-11.2928932188
21
135.292893219
0
LINE
5
89
100
AcDbEntity
8
dim
6
CONTINUOUS
62
7
370
0
100
AcDbLine
10
-12.7071067812
20
148.707106781
11
-11.2928932188
21
147.292893219
0
MTEXT
5
8A
100
AcDbEntity
8
dim
6
CONTINUOUS
62
7
370
0
100
AcDbMText
10
-16.5
20
157.361111111
30
0
40
5
41
14.7222222222
71
5
72
1
1
1'-0"
7
standard
210
0
220
0
230
1
50
90
73
2
44
1
0
LINE
5
8B
100
AcDbEntity
8
dim
6
CONTINUOUS
62
7
370
0
100
AcDbLine
10
-5
20
136
11
-17
21
136
0
LINE
5
8C
100
AcDbEntity
8
dim
6
CONTINUOUS
62
7
370
0
100
AcDbLine
10
-5
20
148
11
-17
21
148
0
ENDBLK
5
53
330
51
100
AcDbEntity
8
0
100
AcDbBlockEnd
0
BLOCK
5
55
330
54
100
AcDbEntity
8
0
100
AcDbBlockBegin
2
*D11
70
1
10
0
20
0
3
*D11
1

0
LINE
5
8D
100
AcDbEntity
8
dim
6
CONTINUOUS
62
7
370
0
100
AcDbLine
10
240
20
0
11
240
21
204
0
LINE
5
8E
100
AcDbEntity
8
dim
6
CONTINUOUS
62
7
370
0
100
AcDbLine
10
239.292893219
20
0.707106781187
11
240.707106781
21
-0.707106781187
0
LINE
5
8F
100
AcDbEntity
8
dim
6
CONTINUOUS
62
7
370
0
100
AcDbLine
10
239.292893219
20
204.707106781
11
240.707106781
21
203.292893219
0
MTEXT
5
90
100
AcDbEntity
8
dim
6
CONTINUOUS
62
7
370
0
100
AcDbMText
10
235.5
20
102
30
0
40
5
41
18.6111111111
71
5
72
1
1
17'-0"
7
standard
210
0
220
0
230
1
50
90
73
2
44
1
0
LINE
5
91
100
AcDbEntity
8
dim
6
CONTINUOUS
62
7
370
0
100
AcDbLine
10
233
20
0
11
245
21
0
0
LINE
5
92
100
AcDbEntity
8
dim
6
CONTINUOUS
62
7
370
0
100
AcDbLine
10
233
20
204
11
245
21
204
0
ENDBLK
5
56
330
54
100
AcDbEntity
8
0
100
AcDbBlockEnd
0
BLOCK
5
58
330
57
100
AcDbEntity
8
0
100
AcDbBlockBegin
2
*D3
70
1
10
0
20
0
3
*D3
1

0
LINE
5
93
100
AcDbEntity
8
dim
6
CONTINUOUS
62
7
370
0
100
AcDbLine
10
-12
20
100
11
-12
21
136
0
LINE
5
94
100
AcDbEntity
8
dim
6
CONTINUOUS
62
7
370
0
100
AcDbLine
10
-12.7071067812
20
100.707106781
11
-11.2928932188
21
99.2928932188
0
LINE
5
95
100
AcDbEntity
8
dim
6
CONTINUOUS
62
7
370
0
100
AcDbLine
10
-12.7071067812
20
136.707106781
11
-11.2928932188
21
135.292893219
0
MTEXT
5
96
100
AcDbEntity
8
dim
6
CONTINUOUS
62
7
370
0
100
AcDbMText
10
-16.5
20
118
30
0
40
5
41
15.8333333333
71
5
72
1
1
3'-0"
7
standard
210
0
220
0
230
1
50
90
73
2
44
1
0
LINE
5
97
100
AcDbEntity
8
dim
6
CONTINUOUS
62
7
370
0
100
AcDbLine
10
-5
20
100
11
-17
21
100
0
LINE
5
98
100
AcDbEntity
8
dim
6
CONTINUOUS
62
7
370
0
100
AcDbLine
10
-5
20
136
11
-17
21
136
0
ENDBLK
5
59
330
57
100
AcDbEntity
8
0
100
AcDbBlockEnd
0
BLOCK
5
5B
330
5A
100
AcDbEntity
8
0
100
AcDbBlockBegin
2
*D10
70
1
10
0
20
0
3
*D10
1

0
LINE
5
99
100
AcDbEntity
8
dim
6
CONTINUOUS
62
7
370
0
100
AcDbLine
10
240
20
240
11
240
21
461
0
LINE
5
9A
100
AcDbEntity
8
dim
6
CONTINUOUS
62
7
370
0
100
AcDbLine
10
239.292893219
20
240.707106781
11
240.707106781
21
239.292893219
0
LINE
5
9B
100
AcDbEntity
8
dim
6
CONTINUOUS
62
7
370
0
100
AcDbLine
10
239.292893219
20
461.707106781
11
240.707106781
21
460.292893219
0
MTEXT
5
9C
100
AcDbEntity
8
dim
6
CONTINUOUS
62
7
370
0
100
AcDbMText
10
235.5
20
350.5
30
0
40
5
41
18.6111111111
71
5
72
1
1
18'-5"
7
standard
210
0
220
0
230
1
50
90
73
2
44
1
0
LINE
5
9D
100
AcDbEntity
8
dim
6
CONTINUOUS
62
7
370
0
100
AcDbLine
10
233
20
240
11
245
21
240
0
LINE
5
9E
100
AcDbEntity
8
dim
6
CONTINUOUS
62
7
370
0
100
AcDbLine
10
233
20
461
11
245
21
461
0
ENDBLK
5
5C
330
5A
100
AcDbEntity
8
0
100
AcDbBlockEnd
0
BLOCK
5
5E
330
5D
100
AcDbEntity
8
0
100
AcDbBlockBegin
2
*D1
70
1
10
0
20
0
3
*D1
1

0
LINE
5
9F
100
AcDbEntity
8
dim
6
CONTINUOUS
62
7
370
0
100
AcDbLine
10
-24
20
485
11
-24
21
1.70530256582e-15
0
LINE
5
A0
100
AcDbEntity
8
dim
6
CONTINUOUS
62
7
370
0
100
AcDbLine
10
-23.2928932188
20
484.292893219
11
-24.7071067812
21
485.707106781
0
LINE
5
A1
100
AcDbEntity
8
dim
6
CONTINUOUS
62
7
370
0
100
AcDbLine
10
-23.2928932188
20
-0.707106781187
11
-24.7071067812
21
0.707106781187
0
MTEXT
5
A2
100
AcDbEntity
8
dim
6
CONTINUOUS
62
7
370
0
100
AcDbMText
10
-28.5
20
242.5
30
0
40
5
41
20.2777777778
71
5
72
1
1
40'-5"
7
standard
210
0
220
0
230
1
50
90
73
2
44
1
0
LINE
5
A3
100
AcDbEntity
8
dim
6
CONTINUOUS
62
7
370
0
100
AcDbLine
10
-5
20
485
11
-29
21
485
0
LINE
5
A4
100
AcDbEntity
8
dim
6
CONTINUOUS
62
7
370
0
100
AcDbLine
10
-5
20
6.12323399574e-16
11
-29
21
2.3176259654e-15
0
ENDBLK
5
5F
330
5D
100
AcDbEntity
8
0
100
AcDbBlockEnd
0
BLOCK
5
61
330
60
100
AcDbEntity
8
0
100
AcDbBlockBegin
2
*D4
70
1
10
0
20
0
3
*D4
1

0
LINE
5
A5
100
AcDbEntity
8
dim
6
CONTINUOUS
62
7
370
0
100
AcDbLine
10
-12
20
0
11
-12
21
100
0
LINE
5
A6
100
AcDbEntity
8
dim
6
CONTINUOUS
62
7
370
0
100
AcDbLine
10
-12.7071067812
20
0.707106781187
11
-11.2928932188
21
-0.707106781187
0
LINE
5
A7
100
AcDbEntity
8
dim
6
CONTINUOUS
62
7
370
0
100
AcDbLine
10
-12.7071067812
20
100.707106781
11
-11.2928932188
21
99.2928932188
0
MTEXT
5
A8
100
AcDbEntity
8
dim
6
CONTINUOUS
62
7
370
0
100
AcDbMText
10
-16.5
20
50
30
0
40
5
41
16.3888888889
71
5
72
1
1
8'-4"
7
standard
210
0
220
0
230
1
50
90
73
2
44
1
0
LINE
5
A9
100
AcDbEntity
8
dim
6
CONTINUOUS
62
7
370
0
100
AcDbLine
10
-5
20
6.12323399574e-16
11
-17
21
6.12323399574e-16
0
LINE
5
AA
100
AcDbEntity
8
dim
6
CONTINUOUS
62
7
370
0
100
AcDbLine
10
-5
20
100
11
-17
21
100
0
ENDBLK
5
62
330
60
100
AcDbEntity
8
0
100
AcDbBlockEnd
0
BLOCK
5
64
330
63
100
AcDbEntity
8
0
100
AcDbBlockBegin
2
*D6
70
1
10
0
20
0
3
*D6
1

0
LINE
5
AB
100
AcDbEntity
8
dim
6
CONTINUOUS
62
7
370
0
100
AcDbLine
10
-12
20
367
11
-12
21
184
0
LINE
5
AC
100
AcDbEntity
8
dim
6
CONTINUOUS
62
7
370
0
100
AcDbLine
10
-11.2928932188
20
366.292893219
11
-12.7071067812
21
367.707106781
0
LINE
5
AD
100
AcDbEntity
8
dim
6
CONTINUOUS
62
7
370
0
100
AcDbLine
10
-11.2928932188
20
183.292893219
11
-12.7071067812
21
184.707106781
0
MTEXT
5
AE
100
AcDbEntity
8
dim
6
CONTINUOUS
62
7
370
0
100
AcDbMText
10
-16.5
20
275.5
30
0
40
5
41
18.6111111111
71
5
72
1
1
15'-3"
7
standard
210
0
220
0
230
1
50
90
73
2
44
1
0
LINE
5
AF
100
AcDbEntity
8
dim
6
CONTINUOUS
62
7
370
0
100
AcDbLine
10
-5
20
367
11
-17
21
367
0
LINE
5
B0
100
AcDbEntity
8
dim
6
CONTINUOUS
62
7
370
0
100
AcDbLine
10
-5
20
184
11
-17
21
184
0
ENDBLK
5
65
330
63
100
AcDbEntity
8
0
100
AcDbBlockEnd
0
BLOCK
5
67
330
66
100
AcDbEntity
8
0
100
AcDbBlockBegin
2
*D12
70
1
10
0
20
0
3
*D12
1

0
LINE
5
B1
100
AcDbEntity
8
dim
6
CONTINUOUS
62
7
370
0
100
AcDbLine
10
0
20
-12
11
228
21
-12
0
LINE
5
B2
100
AcDbEntity
8
dim
6
CONTINUOUS
62
7
370
0
100
AcDbLine
10
0.707106781187
20
-11.2928932188
11
-0.707106781187
21
-12.7071067812
0
LINE
5
B3
100
AcDbEntity
8
dim
6
CONTINUOUS
62
7
370
0
100
AcDbLine
10
228.707106781
20
-11.2928932188
11
227.292893219
21
-12.7071067812
0
MTEXT
5
B4
100
AcDbEntity
8
dim
6
CONTINUOUS
62
7
370
0
100
AcDbMText
10
114
20
-7.5
30
0
40
5
41
18.6111111111
71
5
72
1
1
19'-0"
7
standard
210
0
220
0
230
1
50
0
73
2
44
1
0
LINE
5
B5
100
AcDbEntity
8
dim
6
CONTINUOUS
62
7
370
0
100
AcDbLine
10
-9.18485099361e-16
20
-5
11
-9.18485099361e-16
21
-17
0
LINE
5
B6
100
AcDbEntity
8
dim
6
CONTINUOUS
62
7
370
0
100
AcDbLine
10
228
20
-5
11
228
21
-17
0
ENDBLK
5
68
330
66
100
AcDbEntity
8
0
100
AcDbBlockEnd
0
BLOCK
5
6A
330
69
100
AcDbEntity
8
0
100
AcDbBlockBegin
2
*D9
70
1
10
0
20
0
3
*D9
1

0
LINE
5
B7
100
AcDbEntity
8
dim
6
CONTINUOUS
62
7
370
0
100
AcDbLine
10
0
20
492
11
102
21
492
0
LINE
5
B8
100
AcDbEntity
8
dim
6
CONTINUOUS
62
7
370
0
100
AcDbLine
10
0.707106781187
20
492.707106781
11
-0.707106781187
21
491.292893219
0
LINE
5
B9
100
AcDbEntity
8
dim
6
CONTINUOUS
62
7
370
0
100
AcDbLine
10
102.707106781
20
492.707106781
11
101.292893219
21
491.292893219
0
MTEXT
5
BA
100
AcDbEntity
8
dim
6
CONTINUOUS
62
7
370
0
100
AcDbMText
10
51
20
496.5
30
0
40
5
41
15.8333333333
71
5
72
1
1
8'-6"
7
standard
210
0
220
0
230
1
50
0
73
2
44
1
0
LINE
5
BB
100
AcDbEntity
8
dim
6
CONTINUOUS
62
7
370
0
100
AcDbLine
10
3.06161699787e-16
20
490
11
3.06161699787e-16
21
497
0
LINE
5
BC
100
AcDbEntity
8
dim
6
CONTINUOUS
62
7
370
0
100
AcDbLine
10
102
20
490
11
102
21
497
0
ENDBLK
5
6B
330
69
100
AcDbEntity
8
0
100
AcDbBlockEnd
0
BLOCK
5
6D
330
6C
100
AcDbEntity
8
0
100
AcDbBlockBegin
2
*D5
70
1
10
0
20
0
3
*D5
1

0
LINE
5
BD
100
AcDbEntity
8
dim
6
CONTINUOUS
62
7
370
0
100
AcDbLine
10
-12
20
403
11
-12
21
485
0
LINE
5
BE
100
AcDbEntity
8
dim
6
CONTINUOUS
62
7
370
0
100
AcDbLine
10
-12.7071067812
20
403.707106781
11
-11.2928932188
21
402.292893219
0
LINE
5
BF
100
AcDbEntity
8
dim
6
CONTINUOUS
62
7
370
0
100
AcDbLine
10
-12.7071067812
20
485.707106781
11
-11.2928932188
21
484.292893219
0
MTEXT
5
C0
100
AcDbEntity
8
dim
6
CONTINUOUS
62
7
370
0
100
AcDbMText
10
-16.5
20
444
30
0
40
5
41
18.6111111111
71
5
72
1
1
6'-10"
7
standard
210
0
220
0
230
1
50
90
73
2
44
1
0
LINE
5
C1
100
AcDbEntity
8
dim
6
CONTINUOUS
62
7
370
0
100
AcDbLine
10
-5
20
403
11
-17
21
403
0
LINE
5
C2
100
AcDbEntity
8
dim
6
CONTINUOUS
62
7
370
0
100
AcDbLine
10
-5
20
485
11
-17
21
485
0
ENDBLK
5
6E
330
6C
100
AcDbEntity
8
0
100
AcDbBlockEnd
0
BLOCK
5
70
330
6F
100
AcDbEntity
8
0
100
AcDbBlockBegin
2
Table_Comp_Large
70
0
10
0
20
0
3
Table_Comp_Large
1

0
LINE
5
C3
100
AcDbEntity
8
blocks
6
CONTINUOUS
62
7
370
0
100
AcDbLine
10
0
20
0
11
60
21
0
0
LINE
5
C4
100
AcDbEntity
8
blocks
6
CONTINUOUS
62
7
370
0
100
AcDbLine
10
60
20
0
11
60
21
30
0
LINE
5
C5
100
AcDbEntity
8
blocks
6
CONTINUOUS
62
7
370
0
100
AcDbLine
10
60
20
30
11
0
21
30
0
LINE
5
C6
100
AcDbEntity
8
blocks
6
CONTINUOUS
62
7
370
0
100
AcDbLine
10
0
20
30
11
0
21
0
0
ENDBLK
5
71
330
6F
100
AcDbEntity
8
0
100
AcDbBlockEnd
0
BLOCK
5
73
330
72
100
AcDbEntity
8
0
100
AcDbBlockBegin
2
Table_Comp_Small
70
0
10
0
20
0
3
Table_Comp_Small
1

0
LINE
5
C7
100
AcDbEntity
8
blocks
6
CONTINUOUS
62
7
370
0
100
AcDbLine
10
0
20
0
11
48
21
0
0
LINE
5
C8
100
AcDbEntity
8
blocks
6
CONTINUOUS
62
7
370
0
100
AcDbLine
10
48
20
0
11
48
21
30
0
LINE
5
C9
100
AcDbEntity
8
blocks
6
CONTINUOUS
62
7
370
0
100
AcDbLine
10
48
20
30
11
0
21
30
0
LINE
5
CA
100
AcDbEntity
8
blocks
6
CONTINUOUS
62
7
370
0
100
AcDbLine
10
0
20
30
11
0
21
0
0
ENDBLK
5
74
330
72
100
AcDbEntity
8
0
100
AcDbBlockEnd
0
BLOCK
5
76
330
75
100
AcDbEntity
8
0
100
AcDbBlockBegin
2
Table_Comp_Large_DualChair
70
0
10
0
20
0
3
Table_Comp_Large_DualChair
1

0
LINE
5
CB
100
AcDbEntity
8
blocks
6
CONTINUOUS
62
7
370
0
100
AcDbLine
10
0
20
0
11
0
21
30
0
LINE
5
CC
100
AcDbEntity
8
blocks
6
CONTINUOUS
62
7
370
0
100
AcDbLine
10
0
20
30
11
60
21
30
0
LINE
5
CD
100
AcDbEntity
8
blocks
6
CONTINUOUS
62
7
370
0
100
AcDbLine
10
60
20
30
11
60
21
0
0
LINE
5
CE
100
AcDbEntity
8
blocks
6
CONTINUOUS
62
7
370
0
100
AcDbLine
10
0
20
0
11
60
21
0
0
LINE
5
CF
100
AcDbEntity
8
blocks
6
CONTINUOUS
62
7
370
0
100
AcDbLine
10
9
20
30
11
9
21
33
0
LINE
5
D0
100
AcDbEntity
8
blocks
6
CONTINUOUS
62
7
370
0
100
AcDbLine
10
9
20
33
11
27
21
33
0
LINE
5
D1
100
AcDbEntity
8
blocks
6
CONTINUOUS
62
7
370
0
100
AcDbLine
10
27
20
33
11
27
21
30
0
LINE
5
D2
100
AcDbEntity
8
blocks
6
CONTINUOUS
62
7
370
0
100
AcDbLine
10
33
20
30
11
33
21
33
0
LINE
5
D3
100
AcDbEntity
8
blocks
6
CONTINUOUS
62
7
370
0
100
AcDbLine
10
33
20
33
11
51
21
33
0
LINE
5
D4
100
AcDbEntity
8
blocks
6
CONTINUOUS
62
7
370
0
100
AcDbLine
10
51
20
33
11
51
21
30
0
ENDBLK
5
77
330
75
100
AcDbEntity
8
0
100
AcDbBlockEnd
0
BLOCK
5
79
330
78
100
AcDbEntity
8
0
100
AcDbBlockBegin
2
Table_Circle_QuadChair
70
0
10
0
20
0
3
Table_Circle_QuadChair
1

0
CIRCLE
5
D5
100
AcDbEntity
8
blocks
6
CONTINUOUS
62
7
370
0
100
AcDbCircle
10
0
20
0
40
24
0
LINE
5
D6
100
AcDbEntity
8
blocks
6
CONTINUOUS
62
7
370
0
100
AcDbLine
10
-26.8700576851
20
12.7279220614
11
-12.7279220614
21
26.8700576851
0
LINE
5
D7
100
AcDbEntity
8
blocks
6
CONTINUOUS
62
7
370
0
100
AcDbLine
10
-22.4983164324
20
8.35618080868
11
-26.8700576851
21
12.7279220614
0
LINE
5
D8
100
AcDbEntity
8
blocks
6
CONTINUOUS
62
7
370
0
100
AcDbLine
10
-12.7279220614
20
26.8700576851
11
-8.35618080868
21
22.4983164324
0
LINE
5
D9
100
AcDbEntity
8
blocks
6
CONTINUOUS
62
7
370
0
100
AcDbLine
10
12.7279220614
20
26.8700576851
11
26.8700576851
21
12.7279220614
0
LINE
5
DA
100
AcDbEntity
8
blocks
6
CONTINUOUS
62
7
370
0
100
AcDbLine
10
8.35618080868
20
22.4983164324
11
12.7279220614
21
26.8700576851
0
LINE
5
DB
100
AcDbEntity
8
blocks
6
CONTINUOUS
62
7
370
0
100
AcDbLine
10
26.8700576851
20
12.7279220614
11
22.4983164324
21
8.35618080868
0
LINE
5
DC
100
AcDbEntity
8
blocks
6
CONTINUOUS
62
7
370
0
100
AcDbLine
10
26.8700576851
20
-12.7279220614
11
12.7279220614
21
-26.8700576851
0
LINE
5
DD
100
AcDbEntity
8
blocks
6
CONTINUOUS
62
7
370
0
100
AcDbLine
10
22.4983164324
20
-8.35618080868
11
26.8700576851
21
-12.7279220614
0
LINE
5
DE
100
AcDbEntity
8
blocks
6
CONTINUOUS
62
7
370
0
100
AcDbLine
10
12.7279220614
20
-26.8700576851
11
8.35618080868
21
-22.4983164324
0
LINE
5
DF
100
AcDbEntity
8
blocks
6
CONTINUOUS
62
7
370
0
100
AcDbLine
10
-12.7279220614
20
-26.8700576851
11
-26.8700576851
21
-12.7279220614
0
LINE
5
E0
100
AcDbEntity
8
blocks
6
CONTINUOUS
62
7
370
0
100
AcDbLine
10
-8.35618080868
20
-22.4983164324
11
-12.7279220614
21
-26.8700576851
0
LINE
5
E1
100
AcDbEntity
8
blocks
6
CONTINUOUS
62
7
370
0
100
AcDbLine
10
-26.8700576851
20
-12.7279220614
11
-22.4983164324
21
-8.35618080868
0
ENDBLK
5
7A
330
78
100
AcDbEntity
8
0
100
AcDbBlockEnd
0
ENDSEC
0
SECTION
2
ENTITIES
0
LINE
5
E2
100
AcDbEntity
8
0
6
ByLayer
62
256
370
-1
100
AcDbLine
10
0
20
485
11
102
21
485
0
LINE
5
E3
100
AcDbEntity
8
0
6
ByLayer
62
256
370
-1
100
AcDbLine
10
102
20
485
11
102
21
461
0
LINE
5
E4
100
AcDbEntity
8
0
6
ByLayer
62
256
370
-1
100
AcDbLine
10
228
20
0
11
0
21
0
0
LINE
5
E5
100
AcDbEntity
8
0
6
ByLayer
62
256
370
-1
100
AcDbLine
10
102
20
461
11
180
21
461
0
LINE
5
E6
100
AcDbEntity
8
0
6
ByLayer
62
256
370
-1
100
AcDbLine
10
216
20
461
11
228
21
461
0
LINE
5
E7
100
AcDbEntity
8
0
6
ByLayer
62
256
370
-1
100
AcDbLine
10
0
20
403
11
0
21
485
0
LINE
5
E8
100
AcDbEntity
8
0
6
ByLayer
62
256
370
-1
100
AcDbLine
10
0
20
0
11
0
21
100
0
LINE
5
E9
100
AcDbEntity
8
0
6
ByLayer
62
256
370
-1
100
AcDbLine
10
228
20
461
11
228
21
240
0
LINE
5
EA
100
AcDbEntity
8
0
6
ByLayer
62
256
370
-1
100
AcDbLine
10
228
20
204
11
228
21
0
0
LINE
5
EB
100
AcDbEntity
8
0
6
ByLayer
62
256
370
-1
100
AcDbLine
10
0
20
184
11
0
21
367
0
LINE
5
EC
100
AcDbEntity
8
0
6
ByLayer
62
256
370
-1
100
AcDbLine
10
0
20
136
11
0
21
148
0
DIMENSION
5
ED
100
AcDbEntity
8
dim
6
ByLayer
62
256
370
-1
100
AcDbDimension
2
*D1
10
-24
20
0
30
0
11
-28.5
21
242.5
31
0
70
32
71
5
3
Standard
53
0
210
0
220
0
230
1
100
AcDbAlignedDimension
13
0
23
485
33
0
14
0
24
0
34
0
50
90
100
AcDbRotatedDimension
0
DIMENSION
5
EE
100
AcDbEntity
8
dim
6
ByLayer
62
256
370
-1
100
AcDbDimension
2
*D2
10
-12
20
144
30
0
11
-16.5
21
142
31
0
70
32
71
5
3
Standard
53
0
210
0
220
0
230
1
100
AcDbAlignedDimension
13
0
23
136
33
0
14
0
24
148
34
0
50
90
100
AcDbRotatedDimension
0
DIMENSION
5
EF
100
AcDbEntity
8
dim
6
ByLayer
62
256
370
-1
100
AcDbDimension
2
*D3
10
-12
20
132
30
0
11
-16.5
21
118
31
0
70
32
71
5
3
Standard
53
0
210
0
220
0
230
1
100
AcDbAlignedDimension
13
0
23
100
33
0
14
0
24
136
34
0
50
90
100
AcDbRotatedDimension
0
DIMENSION
5
F0
100
AcDbEntity
8
dim
6
ByLayer
62
256
370
-1
100
AcDbDimension
2
*D4
10
-12
20
96
30
0
11
-16.5
21
50
31
0
70
32
71
5
3
Standard
53
0
210
0
220
0
230
1
100
AcDbAlignedDimension
13
0
23
0
33
0
14
0
24
100
34
0
50
90
100
AcDbRotatedDimension
0
DIMENSION
5
F1
100
AcDbEntity
8
dim
6
ByLayer
62
256
370
-1
100
AcDbDimension
2
*D5
10
-12
20
480
30
0
11
-16.5
21
444
31
0
70
32
71
5
3
Standard
53
0
210
0
220
0
230
1
100
AcDbAlignedDimension
13
0
23
403
33
0
14
0
24
485
34
0
50
90
100
AcDbRotatedDimension
0
DIMENSION
5
F2
100
AcDbEntity
8
dim
6
ByLayer
62
256
370
-1
100
AcDbDimension
2
*D6
10
-12
20
180
30
0
11
-16.5
21
275.5
31
0
70
32
71
5
3
Standard
53
0
210
0
220
0
230
1
100
AcDbAlignedDimension
13
0
23
367
33
0
14
0
24
184
34
0
50
90
100
AcDbRotatedDimension
0
DIMENSION
5
F3
100
AcDbEntity
8
dim
6
ByLayer
62
256
370
-1
100
AcDbDimension
2
*D7
10
228
20
492
30
0
11
222
21
496.5
31
0
70
32
71
5
3
Standard
53
0
210
0
220
0
230
1
100
AcDbAlignedDimension
13
216
23
461
33
0
14
228
24
461
34
0
100
AcDbRotatedDimension
0
DIMENSION
5
F4
100
AcDbEntity
8
dim
6
ByLayer
62
256
370
-1
100
AcDbDimension
2
*D8
10
108
20
492
30
0
11
141
21
496.5
31
0
70
32
71
5
3
Standard
53
0
210
0
220
0
230
1
100
AcDbAlignedDimension
13
180
23
461
33
0
14
102
24
485
34
0
100
AcDbRotatedDimension
0
DIMENSION
5
F5
100
AcDbEntity
8
dim
6
ByLayer
62
256
370
-1
100
AcDbDimension
2
*D9
10
96
20
492
30
0
11
51
21
496.5
31
0
70
32
71
5
3
Standard
53
0
210
0
220
0
230
1
100
AcDbAlignedDimension
13
0
23
485
33
0
14
102
24
485
34
0
100
AcDbRotatedDimension
0
DIMENSION
5
F6
100
AcDbEntity
8
dim
6
ByLayer
62
256
370
-1
100
AcDbDimension
2
*D10
10
240
20
456
30
0
11
235.5
21
350.5
31
0
70
32
71
5
3
Standard
53
0
210
0
220
0
230
1
100
AcDbAlignedDimension
13
228
23
240
33
0
14
228
24
461
34
0
50
90
100
AcDbRotatedDimension
0
DIMENSION
5
F7
100
AcDbEntity
8
dim
6
ByLayer
62
256
370
-1
100
AcDbDimension
2
*D11
10
240
20
204
30
0
11
235.5
21
102
31
0
70
32
71
5
3
Standard
53
0
210
0
220
0
230
1
100
AcDbAlignedDimension
13
228
23
-0
33
0
14
228
24
204
34
0
50
90
100
AcDbRotatedDimension
0
DIMENSION
5
F8
100
AcDbEntity
8
dim
6
ByLayer
62
256
370
-1
100
AcDbDimension
2
*D12
10
228
20
-12
30
0
11
114
21
-7.5
31
0
70
32
71
5
3
Standard
53
0
210
0
220
0
230
1
100
AcDbAlignedDimension
13
0
23
0
33
0
14
228
24
-0
34
0
100
AcDbRotatedDimension
0
INSERT
5
F9
100
AcDbEntity
8
layout_a
6
ByLayer
62
256
370
-1
100
AcDbBlockReference
2
Table_Comp_Large_DualChair
10
168
20
168
30
0
41
1
42
1
43
0
50
0
70
1
71
1
44
1
45
1
0
INSERT
5
FA
100
AcDbEntity
8
layout_a
6
ByLayer
62
256
370
-1
100
AcDbBlockReference
2
Table_Comp_Large_DualChair
10
108
20
168
30
0
41
1
42
1
43
0
50
0
70
1
71
1
44
1
45
1
0
INSERT
5
FB
100
AcDbEntity
8
layout_a
6
ByLayer
62
256
370
-1
100
AcDbBlockReference
2
Table_Comp_Large_DualChair
10
48
20
168
30
0
41
1
42
1
43
0
50
0
70
1
71
1
44
1
45
1
0
INSERT
5
FC
100
AcDbEntity
8
layout_a
6
ByLayer
62
256
370
-1
100
AcDbBlockReference
2
Table_Comp_Large_DualChair
10
48
20
102
30
0
41
1
42
1
43
0
50
0
70
1
71
1
44
1
45
1
0
INSERT
5
FD
100
AcDbEntity
8
layout_a
6
ByLayer
62
256
370
-1
100
AcDbBlockReference
2
Table_Comp_Large_DualChair
10
168
20
240
30
0
41
1
42
1
43
0
50
0
70
1
71
1
44
1
45
1
0
INSERT
5
FE
100
AcDbEntity
8
layout_a
6
ByLayer
62
256
370
-1
100
AcDbBlockReference
2
Table_Comp_Large_DualChair
10
108
20
240
30
0
41
1
42
1
43
0
50
0
70
1
71
1
44
1
45
1
0
INSERT
5
FF
100
AcDbEntity
8
layout_a
6
ByLayer
62
256
370
-1
100
AcDbBlockReference
2
Table_Comp_Large_DualChair
10
48
20
240
30
0
41
1
42
1
43
0
50
0
70
1
71
1
44
1
45
1
0
INSERT
5
100
100
AcDbEntity
8
layout_a
6
ByLayer
62
256
370
-1
100
AcDbBlockReference
2
Table_Comp_Large_DualChair
10
168
20
306
30
0
41
1
42
1
43
0
50
0
70
1
71
1
44
1
45
1
0
INSERT
5
101
100
AcDbEntity
8
layout_a
6
ByLayer
62
256
370
-1
100
AcDbBlockReference
2
Table_Comp_Large_DualChair
10
108
20
306
30
0
41
1
42
1
43
0
50
0
70
1
71
1
44
1
45
1
0
INSERT
5
102
100
AcDbEntity
8
layout_a
6
ByLayer
62
256
370
-1
100
AcDbBlockReference
2
Table_Comp_Large_DualChair
10
48
20
306
30
0
41
1
42
1
43
0
50
0
70
1
71
1
44
1
45
1
0
INSERT
5
103
100
AcDbEntity
8
layout_a
6
ByLayer
62
256
370
-1
100
AcDbBlockReference
2
Table_Comp_Large_DualChair
10
168
20
372
30
0
41
1
42
1
43
0
50
0
70
1
71
1
44
1
45
1
0
INSERT
5
104
100
AcDbEntity
8
layout_a
6
ByLayer
62
256
370
-1
100
AcDbBlockReference
2
Table_Comp_Large_DualChair
10
108
20
372
30
0
41
1
42
1
43
0
50
0
70
1
71
1
44
1
45
1
0
INSERT
5
105
100
AcDbEntity
8
layout_a
6
ByLayer
62
256
370
-1
100
AcDbBlockReference
2
Table_Comp_Large_DualChair
10
48
20
372
30
0
41
1
42
1
43
0
50
0
70
1
71
1
44
1
45
1
0
INSERT
5
106
100
AcDbEntity
8
layout_b
6
ByLayer
62
256
370
-1
100
AcDbBlockReference
2
Table_Circle_QuadChair
10
176
20
52
30
0
41
1
42
1
43
0
50
0
70
1
71
1
44
1
45
1
0
INSERT
5
107
100
AcDbEntity
8
layout_b
6
ByLayer
62
256
370
-1
100
AcDbBlockReference
2
Table_Circle_QuadChair
10
80
20
52
30
0
41
1
42
1
43
0
50
0
70
1
71
1
44
1
45
1
0
INSERT
5
108
100
AcDbEntity
8
layout_b
6
ByLayer
62
256
370
-1
100
AcDbBlockReference
2
Table_Circle_QuadChair
10
80
20
136
30
0
41
1
42
1
43
0
50
0
70
1
71
1
44
1
45
1
0
INSERT
5
109
100
AcDbEntity
8
layout_b
6
ByLayer
62
256
370
-1
100
AcDbBlockReference
2
Table_Circle_QuadChair
10
176
20
136
30
0
41
1
42
1
43
0
50
0
70
1
71
1
44
1
45
1
0
INSERT
5
10A
100
AcDbEntity
8
layout_b
6
ByLayer
62
256
370
-1
100
AcDbBlockReference
2
Table_Circle_QuadChair
10
52
20
236
30
0
41
1
42
1
43
0
50
0
70
1
71
1
44
1
45
1
0
INSERT
5
10B
100
AcDbEntity
8
layout_b
6
ByLayer
62
256
370
-1
100
AcDbBlockReference
2
Table_Circle_QuadChair
10
148
20
232
30
0
41
1
42
1
43
0
50
0
70
1
71
1
44
1
45
1
0
INSERT
5
10C
100
AcDbEntity
8
layout_b
6
ByLayer
62
256
370
-1
100
AcDbBlockReference
2
Table_Circle_QuadChair
10
148
20
320
30
0
41
1
42
1
43
0
50
0
70
1
71
1
44
1
45
1
0
INSERT
5
10D
100
AcDbEntity
8
layout_b
6
ByLayer
62
256
370
-1
100
AcDbBlockReference
2
Table_Circle_QuadChair
10
52
20
320
30
0
41
1
42
1
43
0
50
0
70
1
71
1
44
1
45
1
0
INSERT
5
10E
100
AcDbEntity
8
layout_b
6
ByLayer
62
256
370
-1
100
AcDbBlockReference
2
Table_Circle_QuadChair
10
148
20
404
30
0
41
1
42
1
43
0
50
0
70
1
71
1
44
1
45
1
0
INSERT
5
10F
100
AcDbEntity
8
layout_b
6
ByLayer
62
256
370
-1
100
AcDbBlockReference
2
Table_Circle_QuadChair
10
52
20
440
30
0
41
1
42
1
43
0
50
0
70
1
71
1
44
1
45
1
0
INSERT
5
110
100
AcDbEntity
8
layout_c
6
ByLayer
62
256
370
-1
100
AcDbBlockReference
2
Table_Comp_Large_DualChair
10
168
20
36
30
0
41
1
42
1
43
0
50
0
70
1
71
1
44
1
45
1
0
INSERT
5
111
100
AcDbEntity
8
layout_c
6
ByLayer
62
256
370
-1
100
AcDbBlockReference
2
Table_Comp_Large_DualChair
10
108
20
36
30
0
41
1
42
1
43
0
50
0
70
1
71
1
44
1
45
1
0
INSERT
5
112
100
AcDbEntity
8
layout_c
6
ByLayer
62
256
370
-1
100
AcDbBlockReference
2
Table_Comp_Large_DualChair
10
48
20
36
30
0
41
1
42
1
43
0
50
0
70
1
71
1
44
1
45
1
0
INSERT
5
113
100
AcDbEntity
8
layout_c
6
ByLayer
62
256
370
-1
100
AcDbBlockReference
2
Table_Comp_Large_DualChair
10
168
20
102
30
0
41
1
42
1
43
0
50
0
70
1
71
1
44
1
45
1
0
INSERT
5
114
100
AcDbEntity
8
layout_c
6
ByLayer
62
256
370
-1
100
AcDbBlockReference
2
Table_Comp_Large_DualChair
10
108
20
102
30
0
41
1
42
1
43
0
50
0
70
1
71
1
44
1
45
1
0
INSERT
5
115
100
AcDbEntity
8
layout_a
6
ByLayer
62
256
370
-1
100
AcDbBlockReference
2
Table_Comp_Large_DualChair
10
108
20
102
30
0
41
1
42
1
43
0
50
0
70
1
71
1
44
1
45
1
0
INSERT
5
116
100
AcDbEntity
8
layout_a
6
ByLayer
62
256
370
-1
100
AcDbBlockReference
2
Table_Comp_Large_DualChair
10
168
20
102
30
0
41
1
42
1
43
0
50
0
70
1
71
1
44
1
45
1
0
INSERT
5
117
100
AcDbEntity
8
layout_a
6
ByLayer
62
256
370
-1
100
AcDbBlockReference
2
Table_Comp_Large_DualChair
10
168
20
36
30
0
41
1
42
1
43
0
50
0
70
1
71
1
44
1
45
1
0
INSERT
5
118
100
AcDbEntity
8
layout_a
6
ByLayer
62
256
370
-1
100
AcDbBlockReference
2
Table_Comp_Large_DualChair
10
108
20
36
30
0
41
1
42
1
43
0
50
0
70
1
71
1
44
1
45
1
0
INSERT
5
119
100
AcDbEntity
8
layout_a
6
ByLayer
62
256
370
-1
100
AcDbBlockReference
2
Table_Comp_Large_DualChair
10
48
20
36
30
0
41
1
42
1
43
0
50
0
70
1
71
1
44
1
45
1
0
INSERT
5
11A
100
AcDbEntity
8
layout_c
6
ByLayer
62
256
370
-1
100
AcDbBlockReference
2
Table_Comp_Large
10
168
20
168
30
0
41
1
42
1
43
0
50
0
70
1
71
1
44
1
45
1
0
INSERT
5
11B
100
AcDbEntity
8
layout_c
6
ByLayer
62
256
370
-1
100
AcDbBlockReference
2
Table_Comp_Large
10
108
20
168
30
0
41
1
42
1
43
0
50
0
70
1
71
1
44
1
45
1
0
INSERT
5
11C
100
AcDbEntity
8
layout_c
6
ByLayer
62
256
370
-1
100
AcDbBlockReference
2
Table_Comp_Large_DualChair
10
48
20
102
30
0
41
1
42
1
43
0
50
0
70
1
71
1
44
1
45
1
0
INSERT
5
11D
100
AcDbEntity
8
layout_c
6
ByLayer
62
256
370
-1
100
AcDbBlockReference
2
Table_Circle_QuadChair
10
52
20
258
30
0
41
1
42
1
43
0
50
0
70
1
71
1
44
1
45
1
0
INSERT
5
11E
100
AcDbEntity
8
layout_c
6
ByLayer
62
256
370
-1
100
AcDbBlockReference
2
Table_Circle_QuadChair
10
148
20
298
30
0
41
1
42
1
43
0
50
0
70
1
71
1
44
1
45
1
0
INSERT
5
11F
100
AcDbEntity
8
layout_c
6
ByLayer
62
256
370
-1
100
AcDbBlockReference
2
Table_Circle_QuadChair
10
52
20
342
30
0
41
1
42
1
43
0
50
0
70
1
71
1
44
1
45
1
0
INSERT
5
120
100
AcDbEntity
8
layout_c
6
ByLayer
62
256
370
-1
100
AcDbBlockReference
2
Table_Circle_QuadChair
10
148
20
382
30
0
41
1
42
1
43
0
50
0
70
1
71
1
44
1
45
1
0
INSERT
5
121
100
AcDbEntity
8
layout_c
6
ByLayer
62
256
370
-1
100
AcDbBlockReference
2
Table_Circle_QuadChair
10
52
20
426
30
0
41
1
42
1
43
0
50
0
70
1
71
1
44
1
45
1
0
ENDSEC
0
SECTION
2
OBJECTS
0
DICTIONARY
5
C
330
0
100
AcDbDictionary
281
1
3
ACAD_GROUP
350
D
0
DICTIONARY
5
D
330
C
100
AcDbDictionary
281
1
0
ENDSEC
0
EOF
